<?xml version="1.0" encoding="utf-8"?>
<!-- Generator: Adobe Illustrator 19.2.1, SVG Export Plug-In . SVG Version: 6.00 Build 0)  -->
<svg version="1.1" id="Layer_1" xmlns="http://www.w3.org/2000/svg" xmlns:xlink="http://www.w3.org/1999/xlink" x="0px" y="0px"
	 viewBox="0 0 100 100" style="enable-background:new 0 0 100 100;" xml:space="preserve">
<g>
	<g>
		<path class="st0" d="M50,100C22.4,100,0,77.6,0,50S22.4,0,50,0s50,22.4,50,50S77.6,100,50,100z M50,7.7C26.7,7.7,7.7,26.7,7.7,50
			s19,42.3,42.3,42.3s42.3-19,42.3-42.3S73.3,7.7,50,7.7z"/>
	</g>
	<g>
		<circle class="st0" cx="31.1" cy="41.5" r="7.9"/>
	</g>
	<g>
		<circle class="st0" cx="69.4" cy="41.5" r="7.9"/>
	</g>
	<g>
		<path class="st0" d="M30.2,75.9c0-11,8.9-19.9,19.6-20.1c11-0.2,20.3,9,20.2,20.2"/>
	</g>
</g>
</svg>
