<?xml version="1.0" encoding="utf-8"?>
<!-- Generator: Adobe Illustrator 19.2.1, SVG Export Plug-In . SVG Version: 6.00 Build 0)  -->
<svg version="1.1" id="Layer_1" xmlns="http://www.w3.org/2000/svg" xmlns:xlink="http://www.w3.org/1999/xlink" x="0px" y="0px"
	 viewBox="0 0 100 100" style="enable-background:new 0 0 100 100;" xml:space="preserve">
<g>
	<g>
		<path class="st0" d="M50,100C22.4,100,0,77.6,0,50S22.4,0,50,0s50,22.4,50,50S77.6,100,50,100z M50,7.8C26.7,7.8,7.8,26.7,7.8,50
			S26.7,92.2,50,92.2S92.3,73.3,92.3,50S73.3,7.8,50,7.8z"/>
	</g>
	<g>
		<circle class="st0" cx="31.1" cy="41.5" r="7.9"/>
	</g>
	<g>
		<circle class="st0" cx="69.4" cy="41.5" r="7.9"/>
	</g>
	<g>
		<path class="st0" d="M34.1,77.4c-0.8,0-1.6-0.2-2.3-0.7c-1.7-1.2-2.1-3.7-0.9-5.4c1.1-1.5,7.1-9.2,17.5-9.8
			c12.4-0.7,19.6,8.7,20.4,9.8c1.3,1.7,0.9,4.2-0.9,5.4c-1.7,1.3-4.2,0.9-5.4-0.9c-0.2-0.3-5.2-7.1-13.6-6.6c-7,0.4-11,5.5-11.7,6.6
			C36.5,76.8,35.3,77.4,34.1,77.4z"/>
	</g>
</g>
</svg>
