<?xml version="1.0" encoding="utf-8"?>
<!-- Generator: Adobe Illustrator 19.2.1, SVG Export Plug-In . SVG Version: 6.00 Build 0)  -->
<svg version="1.1" id="Layer_1" xmlns="http://www.w3.org/2000/svg" xmlns:xlink="http://www.w3.org/1999/xlink" x="0px" y="0px"
	 viewBox="0 0 100 100" style="enable-background:new 0 0 100 100;" xml:space="preserve">
<g>
	<g>
		<path class="st0" d="M50,99.8c-27.5,0-49.9-22.4-49.9-49.9S22.5,0,50,0s49.9,22.4,49.9,49.9S77.5,99.8,50,99.8z M50,7.7
			C26.8,7.7,7.9,26.6,7.9,49.9S26.8,92.1,50,92.1s42.2-18.9,42.2-42.2S73.3,7.7,50,7.7z"/>
	</g>
	<g>
		<circle class="st0" cx="31.1" cy="41.4" r="7.9"/>
	</g>
	<g>
		<circle class="st0" cx="69.4" cy="41.4" r="7.9"/>
	</g>
	<g>
		<path class="st0" d="M48.8,77.2c-11.5,0-18.2-8.8-18.9-9.8c-1.3-1.7-0.9-4.1,0.9-5.4c1.7-1.3,4.1-0.9,5.4,0.9
			c0.2,0.3,5.2,7.1,13.6,6.6c7-0.4,11-5.5,11.7-6.6c1.2-1.7,3.7-2.1,5.4-0.9c1.7,1.2,2.1,3.7,0.9,5.4c-1.1,1.5-7.1,9.1-17.5,9.8
			C49.8,77.2,49.3,77.2,48.8,77.2z"/>
	</g>
</g>
</svg>
